<svg viewBox="0 0 30 30" xmlns="http://www.w3.org/2000/svg" xmlns:xlink="http://www.w3.org/1999/xlink" width="30.000000" height="30.000000" fill="none">
	<rect id="menu (1) 1" width="30.000000" height="30.000000" x="0.000000" y="0.000000" fill="rgb(255,255,255)" fill-opacity="0" />
	<g id="Group">
		<g id="Menu 1">
			<path id="Vector" d="M0.937476 9.37501L29.0624 9.37501C29.58 9.37501 29.9999 8.95498 29.9999 8.43754C29.9999 7.92002 29.5799 7.50006 29.0624 7.50006L0.937476 7.50006C0.419955 7.50006 0 7.92009 0 8.43754C0 8.95498 0.420033 9.37501 0.937476 9.37501Z" fill="rgb(0,0,0)" fill-rule="nonzero" />
			<path id="Vector" d="M29.0624 14.0625L0.937476 14.0625C0.419955 14.0625 0 14.4826 0 15C0 15.5174 0.420033 15.9375 0.937476 15.9375L29.0624 15.9375C29.58 15.9375 29.9999 15.5174 29.9999 15C29.9999 14.4826 29.58 14.0625 29.0624 14.0625Z" fill="rgb(0,0,0)" fill-rule="nonzero" />
			<path id="Vector" d="M29.0625 20.625L10.3125 20.625C9.79495 20.625 9.375 21.045 9.375 21.5625C9.375 22.08 9.79503 22.5 10.3125 22.5L29.0625 22.5C29.58 22.5 29.9999 22.0799 29.9999 21.5625C30 21.045 29.58 20.625 29.0625 20.625Z" fill="rgb(0,0,0)" fill-rule="nonzero" />
		</g>
	</g>
</svg>
