<svg viewBox="0 0 27 27" xmlns="http://www.w3.org/2000/svg" xmlns:xlink="http://www.w3.org/1999/xlink" width="27.000000" height="26.999969" fill="none" customFrame="#000000">
	<path id="Vector" d="M26.9947 6.6587C26.9632 6.36829 26.7827 6.11127 26.513 5.98539L13.8567 0.0791411C13.6306 -0.0263804 13.3693 -0.0263804 13.1431 0.0791411L0.486896 5.98539C0.217213 6.11127 0.0367559 6.36824 0.00516797 6.6587C0.00448242 6.66477 0 6.74556 0 6.74999L0 21.0937C0 21.4387 0.210041 21.749 0.530402 21.8771L13.1867 26.9396C13.2872 26.9798 13.3936 27 13.5 27C13.6064 27 13.7128 26.9799 13.8133 26.9396L26.4696 21.8771C26.79 21.749 27 21.4387 27 21.0937L27 6.74999C27 6.74556 26.9954 6.66471 26.9947 6.6587ZM13.5 1.77481L24.0334 6.6904L19.9774 8.31282L9.24576 3.76016L13.5 1.77481ZM7.18822 4.72035L17.7533 9.2024L13.5 10.9037L2.96662 6.6904L7.18822 4.72035ZM1.6875 7.9962L12.6562 12.3837L12.6562 24.91L1.6875 20.5225L1.6875 7.9962ZM14.3438 24.91L14.3438 12.3837L25.3125 7.9962L25.3125 20.5225L14.3438 24.91Z" fill="rgb(9.73958,20.4531,58.4375)" fill-rule="nonzero" />
</svg>
