<svg viewBox="0 0 14.6506 14.6506" xmlns="http://www.w3.org/2000/svg" xmlns:xlink="http://www.w3.org/1999/xlink" width="14.650574" height="14.650574" fill="none" customFrame="#000000">
	<path id="Vector" d="M14.6506 14.0259L10.0862 9.46147C10.9465 8.45823 11.4706 7.15765 11.4706 5.73529C11.4706 2.57294 8.89765 0 5.7353 0C4.20353 0 2.76265 0.596471 1.67824 1.67912C0.595589 2.76265 -0.000881375 4.20353 9.77541e-07 5.73529C9.77541e-07 8.89765 2.57294 11.4706 5.7353 11.4706C7.15765 11.4706 8.45912 10.9465 9.46235 10.0862L14.0268 14.6506L14.6506 14.0259ZM5.7353 10.5882C3.06 10.5882 0.882354 8.41147 0.882354 5.73529C0.881472 4.43824 1.38618 3.21971 2.30294 2.30382C3.21882 1.38706 4.43824 0.882353 5.7353 0.882353C8.41059 0.882353 10.5882 3.05912 10.5882 5.73529C10.5882 8.41059 8.41059 10.5882 5.7353 10.5882Z" fill="rgb(255,255,255)" fill-rule="nonzero" />
</svg>
